# xmcd
#
# Track frame offsets:
#	150
#	14070
#	28172
#	43450
#
# Disc length: 794 seconds
# Revision: 0
# Processed by: cddbd v1.5.2PL0 Copyright (c) Steve Scherf et al.
# Submitted via: dBpowerAMP V12.0
#
DISCID=36031804
DTITLE=Bill Murray - Wiradjuri Man
DYEAR=2018
DGENRE=Country
TTITLE0=No More Mr. Nice Guy
TTITLE1=Anarchy in the U.K.
TTITLE2=Liar
TTITLE3=502
EXTD=
EXTT0=
EXTT1=
EXTT2=
EXTT3=
PLAYORDER=
